<?xml version="1.0" encoding="UTF-8" standalone="no"?>
<svg
   xmlns:dc="http://purl.org/dc/elements/1.1/"
   xmlns:cc="http://creativecommons.org/ns#"
   xmlns:rdf="http://www.w3.org/1999/02/22-rdf-syntax-ns#"
   xmlns:svg="http://www.w3.org/2000/svg"
   xmlns="http://www.w3.org/2000/svg"
   viewBox="0 0 666.66669 666.66669"
   height="666.66669"
   width="666.66669"
   xml:space="preserve"
   id="svg2"
   version="1.1"><metadata
     id="metadata8"><rdf:RDF><cc:Work
         rdf:about=""><dc:format>image/svg+xml</dc:format><dc:type
           rdf:resource="http://purl.org/dc/dcmitype/StillImage" /></cc:Work></rdf:RDF></metadata><defs
     id="defs6"><clipPath
       id="clipPath26"
       clipPathUnits="userSpaceOnUse"><path
         id="path24"
         d="M 0,500 H 500 V 0 H 0 Z" /></clipPath></defs><g
     transform="matrix(1.3333333,0,0,-1.3333333,0,666.66667)"
     id="g10"><text
       id="text14"
       style="font-variant:normal;font-weight:normal;font-stretch:normal;font-size:49.17689896px;font-family:Sansation;-inkscape-font-specification:Sansation;writing-mode:lr-tb;fill:#040606;fill-opacity:1;fill-rule:nonzero;stroke:none"
       transform="matrix(1,0,0,-1,149.8149,199.4102)"><tspan
         id="tspan12"
         y="0"
         x="0 43.078964 82.322128 126.48299 167.05885">GEKKO</tspan></text>
<text
       id="text18"
       style="font-variant:normal;font-weight:bold;font-stretch:normal;font-size:22.35309982px;font-family:Sansation;-inkscape-font-specification:Sansation-Bold;writing-mode:lr-tb;fill:#231f20;fill-opacity:1;fill-rule:nonzero;stroke:none"
       transform="matrix(1,0,0,-1,92.0112,170.8975)"><tspan
         id="tspan16"
         y="0"
         x="0 32.344936 63.728687 98.66658 128.37386 151.17401 182.55777 214.41093 242.4976 275.79031 305.51993">REAL ESTATE</tspan></text>
<g
       id="g20"><g
         clip-path="url(#clipPath26)"
         id="g22"><g
           transform="translate(364.7977,317.9512)"
           id="g28"><path
             id="path30"
             style="fill:#040606;fill-opacity:1;fill-rule:nonzero;stroke:none"
             d="m 0,0 c 1.866,-1.547 1.881,-4.162 1.542,-6.361 -1.027,-3.079 -2.336,-6.098 -4.177,-8.773 -0.482,-0.958 -1.064,-1.86 -1.713,-2.713 -3.044,-4.746 -6.72,-9.037 -10.257,-13.412 -2.361,-2.514 -4.18,-5.665 -7.306,-7.342 -2.277,-0.89 -4.992,-1.598 -7.307,-0.444 -2.958,1.414 -6.486,2.596 -9.727,1.501 -1.541,-0.309 -1.431,-2.481 -2.916,-2.773 -4.56,-1.2 -9.12,-2.56 -13.835,-2.989 l -0.366,-0.371 c -6.598,-0.462 -13.236,-1.666 -19.855,-0.72 -11.096,0.666 -22.18,4.367 -30.884,11.402 -5.953,4.868 -10.752,11.092 -14.133,17.991 -0.72,1.474 -1.389,2.97 -2.169,4.411 2.715,1.744 5.054,3.986 7.471,6.101 1.402,1.168 2.45,2.663 3.603,4.059 0.904,0.958 0.561,2.343 0.645,3.523 -0.864,-0.028 -1.751,-0.171 -2.477,-0.691 -2.355,-0.553 -3.65,1.647 -4.712,3.321 -0.538,0.05 -1.075,0.095 -1.618,0.139 0.038,-0.003 -0.744,-3.239 -0.871,-3.531 -0.303,-0.691 -0.755,-1.819 -1.458,-2.191 -0.266,-0.141 -0.576,-0.182 -0.878,-0.179 -0.962,0.007 -1.912,0.452 -2.534,1.186 -1.245,1.467 -0.816,3.319 0.2,4.77 0.799,1.142 1.83,2.135 2.402,3.426 -0.002,-0.004 -0.431,0.04 -0.475,0.04 -0.156,0 -0.312,-0.013 -0.466,-0.039 -0.3,-0.05 -0.589,-0.149 -0.863,-0.278 -0.568,-0.268 -1.069,-0.656 -1.565,-1.036 -0.947,-0.728 -2.054,-1.506 -3.312,-1.376 -1.095,0.113 -2.1,0.986 -2.576,1.949 -0.31,0.627 -0.429,1.398 -0.109,2.02 0.49,0.95 1.77,1.337 2.735,1.554 0.833,0.187 1.686,0.266 2.537,0.307 0.733,0.035 1.468,0.042 2.201,0.062 -1.085,0.699 -2.165,1.42 -3.284,2.074 -0.638,0.373 -1.228,1.042 -1.655,1.635 -0.234,0.325 -0.385,0.691 -0.555,1.052 -0.11,0.235 -0.232,0.492 -0.278,0.75 -0.047,0.262 -0.021,0.534 0.043,0.791 0.107,0.429 0.319,0.831 0.612,1.162 0.197,0.222 0.43,0.413 0.694,0.549 0.38,0.196 0.82,0.265 1.243,0.211 0.211,-0.026 0.419,-0.084 0.613,-0.172 0.195,-0.088 0.384,-0.147 0.566,-0.267 0.387,-0.256 0.718,-0.587 1.037,-0.922 0.038,-0.04 0.075,-0.08 0.113,-0.12 l 0.066,-0.07 c 0.399,-0.424 0.767,-0.875 1.117,-1.339 0.76,-1.009 1.435,-2.08 2.182,-3.098 0.024,-0.031 0.139,-0.146 0.136,-0.182 0.039,0.46 0.072,0.914 0.1,1.368 -1.124,1.259 -1.627,2.926 -2.335,4.434 -0.278,0.59 -0.295,1.183 -0.374,1.815 -0.079,0.638 -0.241,1.345 0.101,1.938 0.294,0.511 0.886,0.77 1.458,0.911 0.782,0.193 1.603,0.226 2.397,0.098 0.253,-0.041 0.509,-0.1 0.725,-0.237 1.049,-0.663 0.945,-2.777 0.957,-3.832 0.008,-0.63 0.008,-1.262 0.086,-1.888 0.037,-0.298 0.089,-0.593 0.169,-0.882 0.037,-0.133 0.362,-0.762 0.324,-0.852 0.442,1.026 0.649,2.125 1.037,3.168 0.212,0.569 0.343,1.232 0.793,1.674 0.489,0.479 1.279,0.675 1.945,0.661 0.701,-0.013 1.388,-0.252 1.979,-0.628 0.349,-0.222 0.677,-0.504 0.858,-0.876 0.599,-1.23 -0.503,-3.134 -1.179,-4.143 -0.689,-1.028 -1.457,-2.014 -1.978,-3.143 -0.566,-1.59 -0.839,-3.285 -0.784,-4.98 0.166,-0.294 0.492,-0.887 0.658,-1.186 0.776,-0.167 1.546,-0.339 2.305,-0.55 4.099,-0.229 8.299,0.35 12.298,-0.799 1.312,-0.787 2.547,-1.913 2.762,-3.514 0.403,-2.77 -0.895,-5.395 -2.281,-7.699 -1.614,-1.944 -3.808,-3.255 -5.56,-5.06 -0.959,-0.814 -1.812,-1.772 -2.134,-3.018 2.154,-0.722 4.375,-1.266 6.513,-2.043 2.415,-0.866 4.847,-1.709 7.167,-2.818 2.493,-1.121 4.902,-2.441 7.205,-3.905 3.877,-2.495 7.343,-5.555 11.109,-8.211 1.711,-1.574 3.86,-2.6 6.175,-2.884 2.903,0.547 5.043,2.861 7.935,3.436 l 0.112,0.753 c -0.765,0.388 -1.584,0.699 -2.266,1.231 -0.941,1.031 -1.439,2.366 -2.075,3.591 -0.315,0.898 -0.675,1.779 -1.101,2.632 -0.741,2.001 -1.128,4.2 -0.617,6.3 1.619,1.184 2.883,2.751 4.224,4.219 1.541,1.949 3.432,3.626 4.796,5.719 0.582,0.787 0.405,1.812 0.45,2.72 -1.146,0.666 -2.454,0.849 -3.756,0.966 -1.727,1.796 -0.174,4.97 2.23,4.974 0.449,-0.25 0.898,-0.494 1.346,-0.738 0.476,-0.476 0.941,-0.964 1.401,-1.457 0.238,-0.078 0.72,-0.228 0.958,-0.3 -0.044,0.299 -0.138,0.903 -0.182,1.208 -0.764,0.909 -1.118,2.045 -1.499,3.142 0.466,2.42 3.292,2.984 5.347,2.467 0.775,-1.49 1.344,-3.114 1.294,-4.815 0.266,1.507 1.525,3.377 2.778,4.28 1.967,-0.134 3.508,-0.515 4.676,-2.233 0.337,-1.174 -0.524,-2.787 -1.334,-3.38 -1.322,-0.968 -2.35,-1.32 -3.694,-2.201 -0.362,-0.13 -0.607,-0.262 -0.772,-0.494 -0.006,-0.321 -0.018,-0.953 -0.018,-1.269 1.441,0.598 2.854,1.273 4.273,1.926 0.817,0.376 1.78,0.696 2.692,0.636 0.39,-0.026 0.788,-0.158 1.058,-0.441 0.282,-0.295 0.392,-0.712 0.46,-1.115 0.1,-0.603 0.128,-1.218 0.08,-1.828 -0.059,-0.762 -0.306,-1.611 -0.989,-1.954 -0.424,-0.213 -0.929,-0.18 -1.394,-0.085 -0.979,0.199 -1.945,0.319 -2.937,0.437 -0.173,0.02 -1.815,0.104 -1.853,0.291 0.077,-0.377 0.226,-1.131 0.303,-1.513 0.01,-0.047 0.109,-0.127 0.142,-0.164 0.055,-0.066 0.11,-0.131 0.165,-0.197 0.105,-0.126 0.208,-0.253 0.31,-0.382 0.405,-0.509 0.797,-1.06 1.151,-1.608 0.315,-0.487 0.568,-1.038 0.568,-1.617 0,-0.415 -0.132,-0.825 -0.354,-1.175 -0.229,-0.363 -0.556,-0.666 -0.942,-0.851 -0.426,-0.205 -0.908,-0.263 -1.38,-0.281 -0.562,-0.021 -1.162,0.023 -1.613,0.358 -0.373,0.277 -0.589,0.713 -0.762,1.144 -0.442,1.1 -0.639,2.23 -0.715,3.407 -1.905,1.38 -4.332,0.202 -5.856,-1.194 -3.143,-2.734 -5.677,-6.799 -5.081,-11.121 0.525,-1.562 1.333,-3.191 2.928,-3.879 2.792,-1.365 5.894,-1.882 8.835,-2.814 1.324,-0.234 2.631,-0.705 3.988,-0.634 0.715,0.249 1.336,0.697 1.968,1.096 0.063,3.872 0.021,7.911 1.607,11.527 2.928,3.721 7.128,6.101 11.318,8.132 2.422,1.174 5.059,2.135 7.613,3.042 2.602,0.923 5.245,1.714 7.933,2.348 0.894,0.211 1.792,0.409 2.691,0.599 2.699,0.571 5.448,0.966 8.213,0.915 C -4.607,1.257 -3.791,1.202 -2.98,1.104 -1.911,0.971 -0.975,0.416 0,0" /></g><g
           transform="translate(353.3849,259.9105)"
           id="g32"><path
             id="path34"
             style="fill:#a88329;fill-opacity:1;fill-rule:nonzero;stroke:none"
             d="m 0,0 c 0.588,-0.044 1.207,-0.146 1.753,-0.374 0.487,-0.203 0.936,-0.548 1.154,-1.029 0.128,-0.283 0.169,-0.599 0.175,-0.91 0.041,-2.126 -2.003,-2.821 -3.824,-2.7 -1.396,0.094 -2.729,0.559 -4.108,0.761 0.258,-0.038 0.709,-0.498 0.945,-0.643 0.367,-0.226 0.745,-0.434 1.125,-0.638 0.74,-0.397 1.493,-0.771 2.212,-1.205 1.15,-0.694 3.09,-2.023 3.008,-3.577 -0.026,-0.496 -0.302,-0.948 -0.648,-1.304 -1.18,-1.214 -2.727,-1.835 -4.136,-0.583 -1.229,1.093 -1.983,2.63 -2.897,3.972 -0.234,0.345 -0.478,0.691 -0.772,0.988 -0.042,0.042 -0.084,0.083 -0.128,0.123 -0.052,0.047 -0.106,0.093 -0.162,0.137 0.23,-0.179 0.364,-1.067 0.449,-1.351 0.144,-0.483 0.27,-0.972 0.355,-1.47 0.141,-0.832 0.361,-2.531 -0.307,-3.212 -0.12,-0.123 -0.275,-0.204 -0.432,-0.273 -0.448,-0.196 -0.941,-0.309 -1.428,-0.268 -1.491,0.125 -2.192,1.697 -2.293,3.017 -0.11,1.453 0.41,2.915 1.108,4.168 0.106,1.362 -1.029,2.261 -2.264,2.483 -3.275,-0.68 -6.654,-0.966 -9.995,-0.687 -1.789,-0.026 -2.442,1.913 -3.255,3.171 -2.126,3.563 -4.367,7.537 -8.327,9.29 -3.046,1.06 -6.575,0.796 -9.396,-0.793 -8.601,-4.055 -18.164,-6.98 -27.764,-5.828 -13.754,2.806 -26.597,10.098 -35.82,20.707 -0.847,1.025 -1.772,2.001 -2.918,2.694 -2.356,-2.608 -4.89,-5.099 -6.803,-8.068 -1.541,-2.209 -1.149,-5.179 -2.735,-7.366 -0.788,-1.39 -2.334,-2.076 -3.824,-2.402 -3.684,-0.619 -7.435,-0.832 -11.081,-1.667 -1.701,-0.387 -3.385,-1.139 -4.544,-2.479 -0.715,-0.853 -0.395,-2.116 0.253,-2.903 1.711,-1.336 3.982,-1.969 5.233,-3.859 -0.422,-1.074 -1.021,-2.731 -2.472,-2.519 -2.244,0.461 -3.178,2.827 -4.352,4.528 0.298,-2.332 0.651,-4.748 -0.154,-7.03 -1.374,-1.057 -3.684,-0.768 -4.553,0.795 -0.282,1.601 0.207,3.169 0.69,4.67 0.637,0.476 1.336,1.196 0.915,2.055 -1.047,0.377 -1.413,-1.002 -1.702,-1.717 -0.809,-1.428 -1.702,-2.924 -3.054,-3.904 -2.067,-0.425 -4.243,2.191 -3.411,4.163 1.27,1.451 2.982,2.475 4.849,2.933 -0.027,-0.006 -0.086,0.128 -0.111,0.173 -0.19,0.126 -0.154,0.044 -0.425,0.021 -0.142,0.006 -1.116,-0.004 -1.219,0.002 -0.42,0.021 -0.84,0.019 -1.26,0.023 -0.831,0.008 -1.678,0.04 -2.469,0.324 -0.202,0.072 -0.399,0.16 -0.587,0.264 -0.713,1.751 -0.263,4.139 1.444,5.146 1.933,0.564 3.561,-0.85 5.212,-1.604 -1.191,1.408 -2.514,3.087 -2.258,5.054 0.5,1.284 1.879,1.899 3.192,1.859 1.64,-1.015 2.159,-2.893 2.751,-4.6 2.171,-0.66 4.371,0.142 6.388,0.922 3.342,1.438 6.655,3.159 9.239,5.778 1.269,1.456 2.123,3.323 2.18,5.278 0.145,2.244 -0.557,4.438 -0.423,6.682 0.007,2.144 1.144,4.06 2.319,5.765 0.383,0.676 1.33,0.742 1.674,1.412 -4.369,3.393 -10.518,4.372 -15.914,3.145 -3.624,-0.751 -6.761,-2.938 -9.294,-5.557 -2.539,-2.469 -4.861,-5.16 -6.952,-8.017 -2.96,-3.793 -5.24,-8.052 -7.962,-12.006 -3.593,-5.366 -6.948,-10.993 -11.621,-15.511 -4.074,-4.152 -9.433,-7.34 -15.317,-7.858 -5.529,-0.473 -11.007,1.303 -15.792,3.971 -4.347,2.334 -8.118,6.071 -9.683,10.825 -2.549,7.524 0.37,16.359 6.583,21.208 5.315,4.263 13.21,4.508 18.919,0.876 5.433,-3.272 10.344,-8.416 11.47,-14.849 -0.648,0.084 -1.068,0.538 -1.329,1.115 -1.422,2.577 -3.177,4.965 -5.253,7.055 -2.458,2.561 -5.659,4.602 -9.237,5.052 -3.873,0.385 -7.63,-1.424 -10.54,-3.838 -1.535,-1.933 -2.711,-4.214 -3.1,-6.674 -0.673,-4.382 1.058,-9.008 4.314,-11.991 4.8,-4.778 12.832,-6.489 18.895,-3.135 1.424,0.708 2.599,1.821 3.613,3.028 5.899,7.182 10.868,15.112 14.856,23.508 3.117,6.441 7.619,12.189 13.145,16.734 2.366,2.082 4.8,4.141 7.587,5.641 7.758,4.394 17.183,5.674 25.868,3.73 3.535,-9.57 9.008,-18.581 16.666,-25.405 7.093,-6.436 16.126,-10.596 25.526,-12.275 12.303,-2.417 24.985,-0.923 37.097,1.824 2.726,0.602 5.358,1.559 8.089,2.106 1.001,-3.84 3.603,-6.905 5.867,-10.059 0.93,-1.225 1.694,-2.582 2.712,-3.741 1.955,-1.22 4.331,-1.736 6.619,-1.771 1.607,0.005 2.699,1.256 3.719,2.308 0.185,0.191 -0.008,1.062 -0.051,1.299 -0.165,0.913 -0.633,1.717 -0.827,2.607 -0.076,0.352 -0.065,0.734 0.104,1.052 0.157,0.294 0.432,0.504 0.709,0.688 0.653,0.432 1.444,0.777 2.203,0.587 0.563,-0.141 1.032,-0.574 1.269,-1.103 0.331,-0.74 0.147,-1.511 0.024,-2.273 -0.122,-0.759 -1.12,-1.23 -0.854,-2.066 0.276,-0.017 0.836,-0.056 1.113,-0.073 0.383,1.091 0.71,2.26 1.498,3.14 C -4.024,6.418 -2.6,6.539 -1.67,5.757 -0.518,4.87 -0.386,3.108 -1.079,1.895 -2.166,0.511 -3.989,0.185 -5.546,-0.407 -3.679,-0.701 -1.867,0.14 0,0" /></g></g></g></g></svg>